<svg width="177" height="177" xmlns="http://www.w3.org/2000/svg" xmlns:xlink="http://www.w3.org/1999/xlink">
  <defs>
    <rect id="a" width="177" height="177" rx="14"/>
    <path d="M.1727426 44.2088771C2.1959364 44.725413 4.31590158 45 6.5 45 20.5832611 45 32 33.5832611 32 19.5c0-7.3930798-3.1462005-14.05132515-8.1727426-18.70887708C34.8497973 3.60525644 43 13.6008373 43 25.5 43 39.5832611 31.5832611 51 17.5 51 10.8098187 51 4.72138522 48.4236113.1727426 44.2088771z" id="c"/>
  </defs>
  <g fill="none" fill-rule="evenodd">
    <mask id="b" fill="#fff">
      <use xlink:href="#a"/>
    </mask>
    <use fill="#9B9B9B" xlink:href="#a"/>
    <g mask="url(#b)">
      <path d="M-12.7937022 44.6221418C11.2549801 76.973805 31.058147 95.515983 46.615798 100.248675c23.336476 7.099038 41.639829-18.519013 62.573051-18.519013 13.955482 0 46.225865 19.026632 96.811151 57.079894v80.016396L.2517925 200.34773-87.83060191 64.34977l75.03689971-19.7276282z" stroke="#979797" fill="#C1C1C1"/>
      <path d="M-7 85.319665C9.3157279 50.0240206 24.711998 31.7426451 39.188811 30.4755383 57.802745 28.8463231 82.256551 46.0816986 100.17186 47c17.915309.9183014 28.474254-14.2426404 43.82814-18.1600388 10.522336-2.6846743 24.189003 2.1795065 41 14.5925423l7.513983-41.9832283c0-2.8855949-7.523833-11.4915494-22.571501-25.81786348L-16.2676176-12.1884397l-25.7699885 77.1761339L-7 85.319665z" fill="#8A8A8A"/>
    </g>
    <g mask="url(#b)">
      <g transform="translate(125 10)">
        <mask id="d" fill="#fff">
          <use xlink:href="#c"/>
        </mask>
        <use fill="#FFF" xlink:href="#c"/>
        <path d="M32.2250424 18.0467804c5.038145.9921247 5.9210641 5.5307046 9.4745622 6.4566208 2.3689986.6172774 5.2495902.0385631 8.6417747-1.7361429l-5.9331014 26.8062102-49.08499862-.6590183L14.3461979 20.1510381c8.5604663-2.064255 14.5200811-2.7656742 17.8788445-2.1042577z" fill="#F8F8F8" mask="url(#d)"/>
        <path d="M21.6381953 42.4018251C29 39.5005175 33.2915135 34.0843589 37.2972619 33.3006774c2.6704989-.5224543 5.546823 2.0677312 8.6289722 7.7705563l.6515445 17.8431948H4.4841514L-7.98850983 39.5006478C4.26482388 44.3896709 14.1403923 45.35673 21.6381953 42.4018251z" fill="#ECE9E9" mask="url(#d)"/>
      </g>
    </g>
    <g mask="url(#b)">
      <path d="M108.740825 105.1380726l16.059782-24.4218981c2.778137-4.2246982 9.506287-5.9262692 15.027717-3.8005899 2.163157.8328027 3.914946 2.1799415 4.992402 3.8392387l59.007857 90.8716907c2.75027 4.235374.49247 9.374733-5.042913 11.479079-1.555973.591525-3.270569.897734-5.008033.89438l-49.275032-.09513c-.562596.064221-1.132552.096216-1.704994.09513l-159.6540821-.302893c-6.1699488-.011707-11.15906221-3.782073-11.14349256-8.421352.00437559-1.304084.41249327-2.589492 1.19202955-3.754429L53.4219459 51.62637732c2.7731923-4.14425886 9.4893673-5.81343146 15.0009711-3.72822574 2.159306.81694591 3.907978 2.13843489 4.983553 3.76613857l35.334355 53.47378245z" stroke="#787878" stroke-width="4" fill="#FFF"/>
      <path d="M27.3870224 94.1566953c10.5445956 9.7212564 20.7243612 15.4135722 30.5392967 17.0769473 14.7224029 2.4950627 28.0575689-5.3056989 41.6974559-4.3611037 13.639887.9445952 17.688113 6.4626284 33.586282 6.4626284 9.480009 0 19.225632 2.0509753 29.236869 6.1529258l49.472023 71.7974669-229.5692694-10.252714 6.473777-30.10442 38.5635658-56.7717307z" fill="#ECECEC"/>
      <path d="M-1.230585 136.9366399c12.4035816-.2869405 31.0809054-1.9560441 56.0319715-5.0073108 37.4265995-4.5769001 53.9126225-21.2959595 72.7889485-24.4883642 12.584218-2.1282698 25.720773 1.7198744 39.409665 11.5444326 17.410842 24.50484 29.70205 46.3038915 36.873624 65.3971555 7.171575 19.093263 11.411507 41.305945 12.719798 66.638046l-249.70624545-51.939855 18.74721575-42.602852 13.1350227-19.5412521z" fill="#F3F3F3"/>
      <path d="M110.490916 99l-15.214022 24.1937712c7.108205-6.6556287 11.596921-11.4701949 13.466149-14.4436989 1.869228-2.973504 3.711631-5.8980499 5.527209-8.7736378L110.490916 99z" fill="#787878"/>
    </g>
  </g>
</svg>
