
<svg width="177px" height="177px" viewBox="0 0 177 177" version="1.1" xmlns="http://www.w3.org/2000/svg" xmlns:xlink="http://www.w3.org/1999/xlink">
    <defs>
        <rect id="path-1" x="0" y="0" width="177" height="177" rx="14"></rect>
        <path d="M0.172742602,44.2088771 C2.19593639,44.725413 4.31590158,45 6.5,45 C20.5832611,45 32,33.5832611 32,19.5 C32,12.1069202 28.8537995,5.44867485 23.8272574,0.791122918 C34.8497973,3.60525644 43,13.6008373 43,25.5 C43,39.5832611 31.5832611,51 17.5,51 C10.8098187,51 4.72138522,48.4236113 0.172742602,44.2088771 Z" id="path-3"></path>
    </defs>
    <g id="Page-2" stroke="none" stroke-width="1" fill="none" fill-rule="evenodd">
        <mask id="mask-2" fill="white">
            <use xlink:href="#path-1"></use>
        </mask>
        <use id="Mask" fill="#9B9B9B" xlink:href="#path-1"></use>
        <g id="bg-shapes" mask="url(#mask-2)">
            <g transform="translate(-88.000000, -25.000000)">
                <path d="M75.2062978,69.6221418 C99.2549801,101.973805 119.058147,120.515983 134.615798,125.248675 C157.952274,132.347713 176.255627,106.729662 197.188849,106.729662 C211.144331,106.729662 243.414714,125.756294 294,163.809556 L294,243.825952 L88.2517925,225.34773 L0.169398087,89.34977 L75.2062978,69.6221418 Z" id="Path-2" stroke="#979797" stroke-width="1" fill="#C1C1C1"></path>
                <path d="M81,110.319665 C97.3157279,75.0240206 112.711998,56.7426451 127.188811,55.4755383 C145.802745,53.8463231 170.256551,71.0816986 188.17186,72 C206.087169,72.9183014 216.646114,57.7573596 232,53.8399612 C242.522336,51.1552869 256.189003,56.0194677 273,68.4325035 L280.513983,26.4492752 C280.513983,23.5636803 272.99015,14.9577258 257.942482,0.631411719 L71.7323824,12.8115603 L45.9623939,89.9876942 L81,110.319665 Z" id="Path" stroke="none" fill="#8A8A8A"></path>
            </g>
        </g>
        <g id="moon" mask="url(#mask-2)">
            <g transform="translate(125.000000, 10.000000)">
                <mask id="mask-4" fill="white">
                    <use xlink:href="#path-3"></use>
                </mask>
                <use id="Combined-Shape" stroke="none" fill="#FFFFFF" fill-rule="evenodd" xlink:href="#path-3"></use>
                <path d="M32.2250424,18.0467804 C37.2631874,19.0389051 38.1461065,23.577485 41.6996046,24.5034012 C44.0686032,25.1206786 46.9491948,24.5419643 50.3413793,22.7672583 L44.4082779,49.5734685 L-4.67672072,48.9144502 L14.3461979,20.1510381 C22.9066642,18.0867831 28.866279,17.3853639 32.2250424,18.0467804 Z" id="Path-7" stroke="none" fill="#F8F8F8" fill-rule="evenodd" mask="url(#mask-4)"></path>
                <path d="M21.6381953,42.4018251 C29,39.5005175 33.2915135,34.0843589 37.2972619,33.3006774 C39.9677608,32.7782231 42.8440849,35.3684086 45.9262341,41.0712337 L46.5777786,58.9144285 L4.4841514,58.9144285 L-7.98850983,39.5006478 C4.26482388,44.3896709 14.1403923,45.35673 21.6381953,42.4018251 Z" id="Path-5" stroke="none" fill="#ECE9E9" fill-rule="evenodd" mask="url(#mask-4)"></path>
            </g>
        </g>
        <g id="mountains" mask="url(#mask-2)">
            <g transform="translate(-34.000000, 47.000000)">
                <path d="M142.740825,58.1380726 L158.800607,33.7161745 C161.578744,29.4914763 168.306894,27.7899053 173.828324,29.9155846 C175.991481,30.7483873 177.74327,32.0955261 178.820726,33.7548233 L237.828583,124.626514 C240.578853,128.861888 238.321053,134.001247 232.78567,136.105593 C231.229697,136.697118 229.515101,137.003327 227.777637,136.999973 L178.502605,136.904843 C177.940009,136.969064 177.370053,137.001059 176.797611,136.999973 L17.1435289,136.69708 C10.9735801,136.685373 5.98446669,132.915007 6.00003634,128.275728 C6.00441193,126.971644 6.41252961,125.686236 7.19206589,124.521299 L87.4219459,4.62637732 C90.1951382,0.482118458 96.9113132,-1.18705414 102.422917,0.89815158 C104.582223,1.71509749 106.330895,3.03658647 107.40647,4.66429015 L142.740825,58.1380726 Z" id="Fill-4" stroke="#787878" stroke-width="4" fill="#FFFFFF"></path>
                <path d="M61.3870224,47.1566953 C71.931618,56.8779517 82.1113836,62.5702675 91.9263191,64.2336426 C106.648722,66.7287053 119.983888,58.9279437 133.623775,59.8725389 C147.263662,60.8171341 151.311888,66.3351673 167.210057,66.3351673 C176.690066,66.3351673 186.435689,68.3861426 196.446926,72.4880931 L245.918949,144.28556 L16.3496796,134.032846 L22.8234566,103.928426 L61.3870224,47.1566953 Z" id="Path-4" stroke="none" fill="#ECECEC"></path>
                <path d="M32.769415,89.9366399 C45.1729966,89.6496994 63.8503204,87.9805958 88.8013865,84.9293291 C126.227986,80.352429 142.714009,63.6333696 161.590335,60.4409649 C174.174553,58.3126951 187.311108,62.1608393 201,71.9853975 C218.410842,96.4902375 230.70205,118.289289 237.873624,137.382553 C245.045199,156.475816 249.285131,178.688498 250.593422,204.020599 L0.887176548,152.080744 L19.6343923,109.477892 L32.769415,89.9366399 Z" id="Path-3" stroke="none" fill="#F3F3F3"></path>
                <path d="M144.490916,52 L129.276894,76.1937712 C136.385099,69.5381425 140.873815,64.7235763 142.743043,61.7500723 C144.612271,58.7765683 146.454674,55.8520224 148.270252,52.9764345 L144.490916,52 Z" id="Path-6" stroke="none" fill="#787878"></path>
            </g>
        </g>
    </g>
</svg>